<svg xmlns="http://www.w3.org/2000/svg" width="381.899" height="438.012" viewBox="0 0 381.899 438.012">
  <g id="japanMap" transform="translate(0 0)">
    <g id="Region" transform="translate(0 0)">
      <g id="Tohoku" transform="translate(264.597 96.464)" fill="#e2e2e2">
        <g id="Tohoku-2" data-name="Tohoku" transform="translate(0)">
          <path id="JP-07" d="M337.688,220.808l-.555.725L334.9,222.6l-.349.591.036.43h0l-3.07-.931-.51-.922-.3.412.412,1.164-1,.439-1.307,1.253-.385-.51-1.02-.376-.3-1.038-.734-.224-.68-.913-.492-.027h0l-.3-.3.143-1.665-.761.045-.206-.841-.913-.877-2.139-.9-2.157-.251-1.217.528-.161.815-2.5.779-.233.376-.707.17-.206.394-.564.081-.824.662-1.217.215-.635.913-.841.385h0l-2.059-.644-.465.179-.009-.331h0l.215-.376-.1-1.2.2-.7-.376-1.244.313-1.146-.421-.832-.609-.143-.528-.716.868-1.253.179-1.038.125-1.065-.6-.5.51-.823,1.924-.215.492-.26.609.215.286-1.065.367-.143.421-.036.349.286.331-.215,1.128.2.43-.206-.34-.734.081-.725-.376-.922.027-.653,1.369-.931-.116-.215.635-1.164,1.414-1.531h0v-1.484l1.209-1.28.841-.519.546.349.564-.063.3-.313.868,1.5,1.1-.412,1.316,1,.662-.5,1.164.233,1.19-1.441-.492-.367-.036-1.8.269-1.531h0l1.244.591,1.011-.51,1.02.618.331.976,2.372-.242.734.251.5.412-.161,1.02.251.671.564.448,1.083.242.134-.143-.421-.349,1.414.054.116-.2-.027-1.942.877,1.217.448,1.914h0l.34,1.146.635.385.045,1.146.394.671.492,5.4v2.963l-1.253,8.36Zm-3.07,2.828h0l.027.009Z" transform="translate(-305.93 -117.246)"  />
          <path id="JP-05" d="M322.735,153.171l-.618-2.461-1.244-1.45.457-.725.662.206.537.8.17-1.02-.233-.367.358-.546.17-1.253-.3-1.262-.958-.394-.4.385-.483.725-.546,1.844.483.376-.072,1.128-.671-.26-.8.134-.17.224.152.761-1.88-.081-.859-1.647-.2-1.164.125-.653,1.728,1.182.6-.188,1.325-1.307.779-1.405.716-2.139.537-2.685.027-1.495-1.54-1.62h0l.743-.985-.286.734,1.032-.734.233-.779.689-.313.423-.009.188.439,1.325-.116.725.251,1.208-.34.77.161.448-.9,1.173-.1.242.752h.716l.74,1.241.9-.752,1.119.752.707-.564.68-.045.644-.555.636.09.215-.967,2.3.143-.143,2.1,1.907-.206.251,1.647L339.8,138l-.448,1.092L338.605,141h0l-.358.51-.546.2-.725.994.358.439-.134,1.4-.465.412-.045,2.4.555,2.238-.5.161-.439-.43-.734.4.063.949,1,.591-.734,1.316-.349.125.591,1.047.116.967-.457,1.065-.242-.027-.546.77-.376.1.188.644-.385,1.2-.7.761.045.725-.4.107-.045.582.349.081.537,1.119-.134.823.474.671,1,.689-.3.949,2.611-.2-1.291.2.215,1.089h.369l1.413,1.291,1.045.307-.584.584-1.321,1.312.154.994.4.179-3.491-.179-1.468,1.405-1.575.322-.242-.161h0l-.215-.4-1.361-.474-.519-1.611-.949-.072-.313-.689-.967.242-2.757-.841-.707-.627-.635-.161-.179-1.047-.877.215-.331.412-2.247-.367h0l.609-1.316-.206-.832.349-.7-.036-.474.349-.546.627-.1.841-2.139.716-3.75.036-3.67Z" transform="translate(-307.017 -110.779)"  />
          <path id="JP-02" d="M342,123.8l.824-.743.519-.94.51-1.656.206-2.193.528-1.02-.644-1.844-.77-.931-.707-.072-.761,1.441-1.011.725-1.361-.376-.6.582-1.62.3-.761.779-.832-.421.618-4.108.376-.591.277-1.647,1.28-1.817-.2-.734.269-.492,1.54,1.405,1.182.1.8.448,1.405,1.763,1.307.761.8.1.9-.331,1.826-1.495-1.334,6.131-.09,4.556.492,4.968,1.226,4.35,1.056.976.6-.349.206.492,1.71,1.692h0l-.421.483-1.244.555-.1.743-.8.618-1.11-.689-.609.081-1.54.985-.609-.967-1.754,1.334-1.361.34-.662.448-.036.644-.412.018-.9.7-.841-.009-.412-.609h0l-.125-1.173.448-1.092.367-.242-.251-1.647-1.907.206.143-2.1-1.1.439-.215.967-.636-.09-.644.555-.68.045-.707.564-1.119-.752-.9.752-1.029-1.065h-.716l-.242-.752-1.173.1-.448.9-.77-.161-1.208.34-.725-.251-1.325.116-.188-.439-.483-.286-.689.313-.233.779-1.011-.313-.456.1h0l.233-1.593L321,131.2l-.4-.77-.859.045-.134-.734,1.593-1.271.913-1.611.582-.394.546-.224,1.1.618,1.28-.958.725-.09.376-.546.913-3.231.063-3.4-.618-.671-.627-.072.152-.349.788.206.34-.385.358-2.641.976.618.6.886.573.322.6-.17.9-.9.976.34.582.644-.1,2.032.349,2.256.653,2.936.832,1.065,1.19-.1,1.065-1.146.2-.5-.2-1.11.3-1.3,1.334.483.609.859-.161.492.653-.009.823.4.474.788.689.188Z" transform="translate(-307.364 -108.049)"  />
          <path id="JP-03" d="M356.956,163.1l.376.143.045.4-.743-.036.474.474.448-.009.3.609-.922.385-.653-.027.009.322.439.242.492-.107.009.215-.591.474-.662-.027-.233.242,1.495.931-.77.269-1.128-.474.188.868.913.233-1.092.161.662.51-.242.251-.976-.072-.421.224-.376-.421.036-.51-.313-.152.054.546-.269.394.618.77-.385.054.1.815-.421.3-.644-.859.224-.474-.179-.17-.823.081.143.671V171l-.866.1-.768-.3.145.43.442.914v.934l-.777.529s-.576,1.806-1.237,2.017a12.8,12.8,0,0,0-2.2,1.364l-1.154-.3v.593h-1.753l-1.779-1.008-.421-.976.528-.492-.107,2.18-.716-1.64-.771,1.343-1.186-1.343-3.252-.161-.85-.51,1.638-3.947-4.237,2.211,1.381-2.491.707-1.226-.125-.358-.868-.34.251-.868-.242-.2-.325-1.1,1.693-.9-1.622,1.216.747-1.574-1-.689-.474-.671.134-.823-.537-1.119-.349-.081,1.6-2.55L333.4,157.6l1.229-.341-.661.52-.733-.823.284-.381,1.631-.487-1.915-.388,2.222-.651-1.489-.578.425-.756,1.631-.96.349-.125.734-1.316-1-.591-.063-.949.734-.4.439.43.5-.161-.555-2.238.045-2.4.465-.412.134-1.4-.358-.439.725-.994.546-.2,1.39-1.633h0l.052.077.358.532.841.009,1-.523.412-.018.036-.644.662-.448,1.361-.34,1.754-1.334.609.967,1.54-.985.609-.081.928-.01.806.61a.626.626,0,0,1,.1-.743.641.641,0,0,1,.638-.213l1.208-.127h0l1.226,1.826,1.378,3.1-.877.967,1.244.537.412.573-.107.224-.439.009-.322.483.1.877.3.43.457.152.439.8.618.107.358.627-.286,1.432.644,1.083.206,2.667-.376,1.513.394.063-.761,2.3h.224l1.19-1.611.018,1.808.537.072.26.627-.134.322-.555.072-.77,1.047-.627.224.385.788,1.038-1.011.277-.045.179.331-.385,1.19-1,.233-.8.537-.725,1.065.3.313.707-.376.394.483-1.522.26.331.349Z" transform="translate(-308.683 -111.051)"  />
          <path id="JP-04" d="M341.264,187.991l-.367.636.286.224.3-.134.161.582-1.128.671-1.531,3.24-.358,3.312.286,1.745h0l-.618-.161-.644.242.027,1.942-.116.2-1.414-.054.421.349-.134.143-1.083-.242-.564-.448-.251-.671.161-1.02-.5-.412-.734-.251-2.372.242-.331-.976-1.02-.618-1.011.51-1.244-.591-2.1.353-1.4-.593v-1.532l.639-1.2,1.993-.269v-1.631h.358l-2.017-1.127,2.48-.621.307-.913-2.787-.779,3.2-.788h-3.534l.764.385,2.356-3.24-1.127-1.932,1.839.732V181.58l1.291-1.781,1.352-.51-5.711,1.352,3.348-1.352-1.244-.251,1.486-.671-4.992-.9,7.113-1.6,1.173.269h0l.367-4.344,1.45,4.183,1.468-1.405.635-.152h0l.85-.125,1.092.815,1.289.43.492.725,1.978-.224.644.179.224.448-.528.492.421.976,1.584.9.465-.161.152-.627.806-.779,2.193.9.448-1.736-.09-.456.609-.627-.1-1.593.215-.465,1.289.116,1.047.439h0l.761,2.551-.34-.107-.457-.734-.618.179-.081,1.495-1.217.752-.134.5.913.609-.045,1.083-.635-.573-.9.841-.537.161-.027.644,1.54.188-.107.609-.644.573-.421.045.027.439.4.179.143.483.43-.152.546.322-.26.85-.421-.582-.322.1v1.477l-.832-.018.322.286.107.841,1.19-.143.027.26-.591.107.618,1.611-.3.877-1.307-.949.233-.465-.832-.242.233-.4.51-.2-.483-.573-1.011.34-.152-.591-.242-.1-.868-.054-1.4.4-1.119.752.107.823-.483.152-.063-1.235-.823-.107-.457.277.018.358Z" transform="translate(-307.824 -114.737)"  />
          <path id="JP-06" d="M327.861,196.6l-.269,1.531-1.441,1.325.492.367-1.19,1.441-1.164-.233-.662.5-1.316-1-1.1.412-.868-1.5-.3.313-.564.063-.546-.349-.841.519-.564-.609-.707.161h0l-.4-.689-.4.116-.591-.286-.591-1.038.528-2.837.618-.456-.313-.68.3-.734-.143-1.173.465-.734,1.414.2,1.226-.77.707-1.423-1.029-1.1-1.647-.43-.716-1.011.358-1.781-.215-.26-1.325-.286-1.62-.859h0l1.047-2.757,1.557-1.352,1.02-1.343,1.011-3.652.546-.931.627-2.363-.161-.519h0l2.578-1.363,1.056-.179,2.253.179-.491,1.193,1.193.17,3.893-.17h-2.314l1.263,1.088,1.438.491,1.93.667-.743.806.394.492h-.1l2.64,4.628,2.078-3.7-1.619-2.726-3.6,4.168.949.913.17.949.743.4-.609.985.2.868-.385,1.029-.358.09-.591-.313-.09.206.546,1.226.027.483-.34.582.242.815.537.349.179.627-.546,1.432-.976,1.021.143.537-.94,1.182-.143.913.206,1.1-.994,1.414-.17.913-.886.492-1.54.009,1.54,2.256Z" transform="translate(-306.719 -114.426)"  />
        </g>
      </g>
      <g id="Kanto" transform="translate(251.067 196.4)" fill="#e2e2e2">
        <g id="Kanto-2" data-name="Kanto" transform="translate(0 0)">
          <path id="JP-12" d="M318.972,261.277l.125-.188.859.376.349-.421-.269-.644.081-.519,1.208-.34-.107-.457.251-.116.215.34,1.352-1.933.51.4.206-.313-.483-1.155-.68-.743L321.5,254.5l-.618.26-.313-.68h0l-.967-2.023h0l.3-.233.2-1.19-1.5-2.882-.045-.931-.635-1.262h0l.376.027.3.752,1.459,1.8.644.215.179.636.931.627,2.2.77.519.644.913-.367.77.1.528-.358.716.206.77-.734,1.8-.465.967.465.815-.036,1.011.868,1.1.233.994,1.369,2.238,1.378h0l-.1.582-.68-.456-1.343.448-.716-.2-.671.17-2.435,1.853-1.244,1.405-1,1.933-.26,2.077.421,1.1-.546,2.551-.6.125-.421.913-.251.09-1.924.555-.206-.394-1.146.17-.725.985-1.763,1.217-.457,1.083.09.519-.4.546-.931.385-1.047-.188-.17-.644-1.173-.6.027-.26.716.1,1.119-.5-.7-1.486.412-.448L318.7,267l.26-.627-.367-.51.009-.743.823-.635.072-.465-.394-.671.054-.349-.671-.412Z" transform="translate(-293.608 -222.412)"  />
          <path id="JP-10" d="M319.892,240.245l-.277.519-.439.161-.465-.43-2.274.43-1.62-1.2-.77.188-.868-.26-7.363.269-1.513-.77-.627-.045-1.1,1.763-.018.832-.376.68-1.369.063-.412.7-1.361.358-.824.9-1.1.018-.671.9h0l-.322.081-.322-.465-.546-.17-.34-1.584.3-.313-.251-.6-.582-.072-.394-.68.143-.152.412.3.4-.43.027-.725-.376-.394-.206-.994.922-.609.063-1.325-.26-1.029-.743-.224-.627.09-.394.358-.788-.224-.188.277-.385-.063-1.119-.662-.054-1.164.537-1.486-.018-.886.859-1.056.859-.143.009-.976,1.6-.322,1.387-.743h0l.224.152.322-.564,1.074.394.707-.6-.09-.9.573.027,1.334-.555-.224-.394.26-.85.761.1.081-.233-.245-1.727,1.468-.251.734-.653.107-.85,1.378,1.387.1.68.824.063.206.3h0l.009.331.465-.179,2.059.636h0l6.307,1.244.913.394-.913,1.262.251,1.047-.528.8-.161,1.226,1.316.662,1.1-.063.3.609-.734.582-.358,1.074.3.68-1.065,1.387-.161.859.94.7-.036.519.994.868.9-.26.635.385.994-.161.34.215-.081.251Z" transform="translate(-290.814 -219.945)"  />
          <path id="JP-08" d="M331.2,238.686l-.09,1.9.8,2.927,2.4,4.923,1.459,2.229.734.421.036.4h0l-2.229-.323-1.62-.152-1.1-.233-1.011-.868-.815.036-1.8-.134-1.8.465-.77.734-.716-.206-.528.358-.77-.1-.913.367-.519-.644-2.2-.77-.931-.627-.179-.636-.644-.215-1.459-1.8-3.267-4.944-.376-.027h0l2.623,4.506-3.321-4.286-.779-1.754.152-.8h0l.653-.054,1.477-.779.492-1.513,1.011.251.107-.788.9-.421.116-.4,1.4-.072.233-.116.045-.465.6.215.367-.412.394-.018.251.349.6-.188.188-1.047.823-1.656-.018-1.62-.51-1.745.251-.34.85-.188.09-.277-.564-.9.2-1.164-.251-.886,4.5-.192h0l.492.027.68.913.734.224.3,1.038,1.02.376.385.51,1.307-1.253,1-.439-.412-1.164.3-.412.51.922,3.07.931h0l.036.018h0l.027.009h0l.161.573-.564.152-.439.85-1.056,3.58-.627,1.047-.7,2.032.143,2.578-.931,1.155Z" transform="translate(-292.975 -220.238)"  />
          <path id="JP-14" d="M301.03,261.327l.367-1.011,1.6-.743.412-.582.635-.09.439-.465.3-.627.018-2.336h0l.88-2.131.412.492.546-.027.627-.973.77-.143,1.942.636,1.208,1.692.269-.027.17-1.808-.806,1.3.2-.206.537-1.438.584,1.045,2.492,1.5.3.6.43.206.009.34h0l.136,1.718h.054l.376.653-1.334.7-.662-.054-.367.367.34.4.358-.107.358.26-.367.788-.313-.224-.421.072-.09.349.439.233.242,1.182-.3.627.859.7.958.206-.385.949-.635.081-.582.492.107.528.3.081-.036.385-1.2-.027.134-1.056-.3-1.056-.564-.609.054-.564-2.274-.555-2.193.3-1.9.591-1.038.832-.152,1.871-.573.313h0l-1.361-.188-.116-.609-.627-.483-.215-1.352.51-.564.242-.859-.3-1.369-.134-.215-1.37.009Z" transform="translate(-291.886 -223.16)"  />
          <path id="JP-11" d="M297.286,248.7l.179-.465-.465-.94.09-.412h0l-.09-3.925,1.1-.018,2.73-1.736,1.361-.358.412-.7,1.37-.063.376-.68.018-.832,1.1-1.763.627.045,1.513.77.537-.134.868.26.77-.188,1.62,1.2,2.274-.43.465.43.439-.161.277-.519h0l.752.367h0l-.152.8.77,1.754.349.09.349-.313h0l.635,1.253.054.931.349,6.736-.2,1.19-.313.242h0l-.824.063-.152-.376-.465.125-.4-.251-.367.662-1.593-.277-.6.716-.492-.26-.815.331-.251-.779-1.423.671-1.119.027-.474-.537-.7-.134-.367-.779-1.88-.134-.922-.5-1.486-.251-.627-.483-1.244.519-.161.394h0l-.976.26-.618-.474-1.038-.179-.26-.573Z" transform="translate(-291.463 -221.494)"  />
          <path id="JP-09" d="M325.538,224.47l-.081,1.781.242.886-.2,1.164.555.9-.081.286-.85.188-.251.34.51,1.745.018,1.62-.823,1.665-.188,1.047-.6.179-.251-.349-.4.018-.367.421-.609-.215-.045.465-.233.116-1.4.072-.116.4-.9.421-.107.788-1.011-.251-.5,1.513-1.468.779-.653.054h0l-.752-.367h0l-.457-.707.081-.251-.34-.215-.994.161-.636-.385-.9.26-.994-.868.036-.519-.94-.7.161-.859,1.065-1.387-.3-.68.358-1.074.734-.582-.3-.609-1.1.063-1.316-.662.161-1.226.528-.8-.251-1.047.913-1.262-.913-.394.519-1.378h0l.841-.385.635-.913,1.208-.215.824-.671.564-.081.206-.385.707-.179.233-.367,2.506-.779.161-.815,1.217-.528,2.166.251,2.139.9.913.877.206.832.761-.045-.143,1.665Z" transform="translate(-292.737 -219.699)"  />
          <path id="JP-13" d="M309.438,275.992l-.609-.349-.125-.367-.054-1.244.206-.448,1.092.385.465.823-.143,1.343-.832-.143Zm-1.889,5.5-.3,2.05-.439-.358-.054-.465.788-1.226Zm-1.271,1.96.224.242-.546.179Zm11.027-27.819-.734-.054-.179-.832-.448.394-.268,1.4.286.671.224-.134.394.635-.779-.179-.832.26h0l-.009-.34-.43-.206-.3-.6-2.4-1.137-.68.815-.439-.421-.2.206.707.555-.17,1.808-.268.027-1.208-1.692-1.924-.627-.77.143-.528-.886-.546.027-.412-.492-.537-.116h0l-1.88-1.038-1.414-2.9h0l.17-.394,1.114-3.688.635.483,1.486.26.922.5,1.88.134.367.779.7.143.474.537,1.119-.036,1.423-.671.251.779.823-.331.492.26.6-.716,1.593.286.367-.671.4.251.465-.125.152.376.832-.063h0l1.088,5.192h0l.313.68-.5.286.358.34-.743.51-1.047-.385Zm-5.03,33.673.242-.412-.027-.474-.465-.474-.832.1-.358.9.161.564.618.081Zm4.028,20.865.868.537.134-.627.349-.081-.224-.815-.492-.045-.788-.806-.43.009-.143.644.251.5.376.116.1.564Zm0,0,.868.537.134-.627.349-.081-.224-.815-.492-.045-.788-.806-.43.009-.143.644.251.5.376.116.1.564Z" transform="translate(-291.942 -222.546)"  />
        </g>
      </g>
      <g id="Hokkaido" transform="translate(268.715)" fill="#e2e2e2">
        <g id="Hokkaido-2" data-name="Hokkaido">
          <path id="JP-01" d="M327.966,64.09l2.426-1.907.036-.528-1.754-2.837-1.235-.886-.627-1.038.609-2.274-.242-.43,1.468.1.537-.376.188-.483.474-.188,2.461,2.381,1.728.779,1.011,1.146,2.22-.421.152-.376.913-.286.644.018-.125,1.047,2.721,1.244,1.969-1.092,1.763-1.924.886-1.432.09-2.1-1.235-2.47.483-1.736-.591-1.289-.4-2.032.913-1.88,1.316-.8.68-.045,1.817-1.182.832-1.692.367-1.745-.313-7.035.448-.286,1.468-3.079.188-2.56.34-.707.116-1.432-.269-2.927-.689-3.437-2.721-6.552L348.75,8.3l.063-.886.77-1.137.707-1.745-.367-1.253.134-1.146.671.689.116.465.349.143,1.575-.251,1.208-.841L354.47.556l.779-.277.421.3.5,1.155.528.3.564,1.316,2.077,1.522,1.978,2.793,4.431,4.977,3.5,6.471,2.309,2.282,2.184,2.775,4.995,3.938,1.405.8.3.85,1.128.859,3.312,1.736,2.9,1.146,5.263,1.513,2.5.474.394-.277.26.689-.054,1.146.779,1.387.519.43,2.873.9,3.052.188,2.3-.286,2.041-1.781,1.378-1.719,1.951-1.826,1.638-1.128.591-1.3.985-1.038.7-1.235.412.027.4,2-1.083,2.229-.815.823-.537,2.148-1.548,1.907-.841,1.9.09.743-.689,1.835.2.949,1.208,2.309,1.334,1.763,1.361,4.681,1.334,1.754-1.038-.474-.17-.474-1.02-.2-.215.331.188,1.128.77-.6.421.358-.26.492.331.349.358-.251,2.282.555,1.871-1.522.286-.537.994-.636.215-.448,2.936.179-.17.448-1.047.815-1.549.277-1.674.922-.716,2.623-.689-.322-1.11-.045-2.426.456-1.352.806-1.128-.188-.555.537-.125,1.029-1.432,1.924-.913.439-1.7-.09-.806-.707.027-.474.3-.277-.492-.331-.653.09-1.065,1.549-.018.367,1.029,1.011-1.8-.107-1.029-.313-3.2-.018-.618-.134L397.38,62.1l-2.739.483-2.175,1.056-3.043,2.265-4.717,4.717-3.652,5.192-1.369,2.963-.251,1.495.492,1.289-.734,3.473-.815,1.369v1.441l-3.312-3.33-4.341-1.808-7.241-3.983-2.13-1.495-1.647-1.835-2.873-.841-1.978-1.835-1.629-1.074-1.638-.474-2.13-.036-2.837.931-1.862,1.155-2.4,2.041-1.423.8-1.9,2.193-.3.671-.958-.358-.3-.492.34-.26.528.573.107-.725-1.208-.367-.779-2.121-.707-.358-.958-1-.107-.519-1.137-1.1-1.11-.081-1.119.474-.868-.528-1.083.027-1.5,1.62-1.289,2.461-.635,2.282.251,1.736,2.077,1.074,2.453,2.1.671.125,1.226-.474,1.826.277,1.1,1.978,1.459,1.092.967,1.683,2.82,1.217.492.8.707.528-.546.546-.85.009L339.62,92.3l-1.486.591-.77-.707-2.488-.815-.832.143-.251.555-.367.09-.161-.546.609-.4-.179-.6-.528-.331-.77.072-.367.3-.385,1.5-1.289.949-1.155.09-.313.3-.277,3.527-.358.43-.841.027-1.754.779-.806,1.692-.349.286-.913-.716-1.02.2-.806-.636-.967-2.435-.081-.77.367-1.584,1.208-2.712v-.94l.689.072.26-.528.277-2.417-.358-1.772-1.7-2.632-.6-.322-1.164-.107-.457-1.19-.761-.788-1.02-.367-.349-.653-.17-1.244.277-1,.841-.922.3-.85.027-2.372-.439-2,.823-1.3,1-.555,2.041-.054.546-.815,1.244-.653.761-1.719.734.51.5.868.8-.206.081-1.244.734-.752.761-1.531ZM341.142,9.1,341.062,8l1.146-1.119,1.853,1.083.457,1.62-1.62,1.334-1.226-.958-.528-.859ZM312.607,81.759l-.26,1.987L312,84.31l-.582.206-.018.322-.546-.483.054-1.531-.376-.994.662-.976,1.71-.34.412-.465.027.573-.734,1.137ZM339.773,4.083,339.54,6.4l-.349.116L338.4,3.859l.2-1.173-.546-.3.081-.653.582.761.591-.134-.018-.528.3.242.313.7Z" transform="translate(-310.53 -0.279)"  />
        </g>
      </g>
      <g id="Chubu" transform="translate(199.041 165.35)" fill="#e2e2e2">
        <g id="Chubu-2" data-name="Chubu" transform="translate(0 0)">
          <path id="JP-23" d="M259.692,275.778l-.152-.313.448-1.584-.77-1.253.1-1.307.412-1.226-.224-.286-.8.322-1.02-.313h0l-.868-1.405-.286-1.083h0l-1.513-3.75,1.513-2.658,1.146.134,1.486-.448,6.165-2.757-.018.51,1.056.779-.027.582.448.188-.081.43.242.286.286.134.269-.188.841.349.465.636.761-.152.823-.653.564-.009.671.421-.063.215.752.045-.018.277.886.448,1.54-1.253.716-.072h0l-.286.743.573.725-.009.457,1.128-.233.761-.492,1.4.269.2.349.752-.242h0l-.277.877.465.448-.519.51.072.421-.412.215-4.438,5.326-.027.949-1.146,1.728-2.461,1.369-.385,1.1.143,2.077h0l-3.052.707-3.07,1.1-1.817.242-.233-.188.716-1.531.439.045.224.51,2.112-.913.77-.474-.09-.394.4-.322.43.134.2-.17.188-1.02-.51-.627-1.513-.277-.465.412-.215.832-.725-.51-1.907.224-1.271-1.226.277-.967-.394-.17-.376.528-.242,1.987.913.832.134.788-1.513-.537-.689-.653Z" transform="translate(-235.033 -192.651)"  />
          <path id="JP-18" d="M237.676,256.231l1.038.644.063.34.277-.036.376-.233-.582-.725.179-.116.483.322.331-.582-.519-.4-.224-.752.528.134.385.618.68-.358.134.313,1.092-.322.206-.385-.224-.286.054-.85-.385-.609,1.11-.886.349.537-.206,1.28.322.483.537-.1.43-1.361.018-1.146-.51-1.011-1.361-1.361.072-.985-.707-1.065.949-1.137.313-1.334,1.88-2.766-.215-.591h.761l3.019-1.977h0l1.5,1.423.224,1.119.367.34.806-.116.582.68.421.045,1.566-.376,1.665,1.307.215.555,1.692-.43h0l.188.439-.439.331-.224,1.244-1.2,1.333-.045.474.707.251-.116.439.573.474.269,1.092-.564.412-.152.7-1.2-.018-1.011.439-.376-.465-.412.4-.465-.152-.439.394-.734-.188-.5.689-.269-.456-.949.018-1.047-.376-.806.43-.009.868-.886,1.468h0l-1.62-.841-.6.116-.277.6.743,1.575-.116.671-.985-.286-.313.958-1.155.116-.4.779-.412.09-.689-.689-.931,2.479-.51.251-.313-.358-.591-.009-.045.448-.331.09-.4.662h0l-1.226.233-1.352-.528-1.548-.17-.116-.779-1.173-1.083.26-.9-.465-.376.367-.806h0l.788.152-.188.976.161.224,2.309.349,1.593-.34.242-.788-.582.242-.027-.448-.51-.1.465-.528.367-.072Z" transform="translate(-232.69 -190.729)"  />
          <path id="JP-21" d="M251.339,263.18l-.644-.618.286-.188.018-.832.286-.465.036-1.2.492-.394-.474-.761.081-.9-.564-.573.215-.8-.492-.636-.277.448-.7-.26.107-1.432-.591-.063-.233-.958h0l-.886-2.05.009-.868.806-.43,1.047.376.985-1.343.269.456.5-.689.7,1.528.43-.394.465.152.412-.394.367.465L255,249.93l1.208.018.152-.7.555-.412-.269-1.092-.573-.465.107-.439-.707-.251.045-.474-.439-.331.215-1.244.448-.331-.188-.439h0L256,242.8l-.206-.662.546-.206.387-4.654-.036-.349-.226,2.775-.224-.519h0l.064-3.229.26-.949.689-.5.224.528.313-.322.823.456.3.689-.233.653.3.072,1.244-1.092.224-1.029,1.862-1.808,2.256.564.224.394,1.307-.618.528.045.036.788.188.036,1.208-.716.705,3.855,1.011.313.635-.3.752.734.841.063h0l.116.456.922.591.081.474-.081.7-1.244,1.62.34.492-.045.465-.671.636-.009.725.412.448.644.224-.349,1.405-.9.68-.331.823-.394.09-.465.949-.376.063-.3-.3-1.029.313-.313.949-.528.224-.1.483.26.349.931.009.045.456,1.1.331.716,1.6.7.627-.385,1.146.349.4-.063.985.277.492.958-.286.51.483v.815l-.582.627.635.877-.779.26.233,1.137-.752.582.009.474h0l-.716.072-1.54,1.253-.886-.439.018-.286-.752-.036.063-.215-.671-.43-.564.018-.823.653-.761.152-.465-.635-.841-.349-.269.188-.286-.134-.242-.286.081-.439-.439-.179.027-.582-1.056-.779.018-.5-1.334,1-1.486.448-1.137-.134-1.513,2.667-.2,1.96h0l-.967-.107-1.513-2.238Z" transform="translate(-234.296 -190.007)"  />
          <path id="JP-17" d="M256.745,220l-.054-1.155-.286-.125-.322.3-.269-.251.546-2.086.358-.313v-1.495l.313-.34,1.289-1.047,1.011-.456,1.011.251,2.6-1.325.376-.519.877-.43,1.137-.152,1.182-.636.922.116.421.591-.215.421.367.725-.546.26-.9-.036-.474.322-.251,1.047.537.94-.591.877-1.6-.045-.8.448-.51,1.334-1.038.77-.5-.474-.439-.072.152-.546h-.313l-1.307,1.942.483.206-.152.555-.456.107.107.385-.233.349.5.081.5-.51,1.011.994.671-.582.179-.609h.5l.036,3.124h0l-1.11-.09-.644.233-1.253,1.226,1.763,3.065-.492.582-.143.877.206.412-.68,1.1.17,1.011.412.519-2.972,2.709.4,1.683-.286.376.125.788h0l.224.519.68.385.036.349-.841,1.5-.537.206.2.653-.448.976h0l-1.692.43-.215-.555-1.665-1.307-1.566.376-.421-.045-.582-.68-.806.116-.367-.34-.224-1.119-1.5-1.423h0l.985-1.253.823-.286,1.262-1.217,4-5.4.976-1.763,1.19-3.4.036-2.059-.85-1.325-.018-.779Z" transform="translate(-234.332 -187.655)"  />
          <path id="JP-15" d="M285.671,215.666l1.656-1.092,2.291-2.363,2.068-1.164,2.05-3.446.752-.519.609-1.056,1.235-4.126.815-.985,3.643-2.623,2.13-.564,1.531-.994,1.566-1.683,1.11-1.79.367-1.423.116-3.473,1.656-3.357h0l1.62.859,1.325.286.215.26-.358,1.781.716,1.011,1.647.43,1.029,1.1-.707,1.423-1.226.77-1.414-.2-.465.734.143,1.173-.3.734.313.68-.618.456-.528,2.837.591,1.038.591.286.4-.116.4.689h0l-1.414,1.531-.635,1.164.116.215-1.369.931-.027.653.376.922-.081.725.34.734-.43.206-1.128-.2-.331.215-.349-.286-.421.036-.367.143-.286,1.065-.609-.215-.492.26-1.924.215-.51.823.6.5-.125,1.065-.179,1.038-.868,1.253.528.716.609.143.421.832-.313,1.146.376,1.244-.2.7.1,1.2-.215.376h0l-.206-.3-.823-.063-.1-.68-1.378-1.387-.107.859-.734.653-1.459.251.242,1.728-.09.224-.752-.09-.26.85.224.394-1.334.555-.582-.027.1.9-.707.6-1.074-.394-.322.564-.224-.143h0l-.855.143-.358-.143-1.506.331.465-.761-.206-.412.125-.653-5.561,6.247-.922-.976-.036-1.387-.376-.841-.725-.206-2.291.725-.653,1.4-1.065.474,3.362,5.862-.224.036-.26-.564-.761-.054-.9.591-1.11.018-.832.949-.85-.618.492-1.155-.331-.5.689-7.26-.9.081-2.282,8.066-.7,1.173-1.226.94h0l-.528-1.5v-.689l-.349-.537.734-11.147-.734-.224,1.969-2.663h0l4.851-1.772,1.62-1.19.77-.269.823-.985.994.251,1.074-.188Zm4.475-22.171-.528,1.128.17.958.627.269,1.441-.582.179.224-1.271,3.518-2.462,2-.985.054-.9.546-.662-.134-.188-.421,1.173-.51.3-.752-.09-.761.994-.9.206-.8-.224.367-.465-.519-.546-.09-.5.94-.367-.215.009-.788-.206-.134.313-.313.027-1.226.877-1.119.627-1.423.7-.34.609-.886.635-.161.412-1.378.976-.233-.394,2.873Z" transform="translate(-236.978 -185.009)"  />
          <path id="JP-20" d="M267.229,260.135l-.009-.474.752-.582-.233-1.137.779-.26-.635-.877.582-.627v-.815l-.51-.483-.958.286-.277-.492.063-.985-.349-.4.385-1.146-.7-.627-.716-1.6-1.1-.331-.045-.456-.931-.009-.26-.349.1-.483.528-.224.313-.949,1.029-.313.3.3.376-.063.465-.949.394-.09.331-.823.9-.68.349-1.405-.644-.224-.412-.448.009-.725.671-.636.045-.465-.34-.492,1.244-1.62.081-.7-.081-.474-.922-.591-.116-.456h0l.806-.77.376-.725-.018-.671.349-.474.546-.152-.107-.439-.188.036.1-.689,1.056-.627,6.1-3.231h0l1.226-.94.7-1.173-.072-1.155.9-.081,1.665.349.331.5-.492,1.164.85.618.832-.949,1.11-.027.9-.582.761.054.26.555.215-.036.233-1.477,1.065-.474.653-1.405,2.3-.725.725.206.376.841.036,1.387.922.976.877.4-.125.653.206.4-.465.77.34.215.107.43h0l-1.387.743-1.6.322-.009.976-.859.143-.859,1.056.018.886-.537,1.486.054,1.164,1.119.662.385.063.188-.277.788.224.394-.358.627-.09.743.224.26,1.029-.063,1.325-.922.609.206.994.376.394-.027.725-.4.43-.412-.3-.143.152.394.68.582.072.251.6-.3.313.34,1.584.546.17.322.465.322-.081h0l-.09.412.465.94-.179.465h0l-.358-.009-.653.841-.868.009-.483-1.02-1.575-.027-.2.367-.43.081-.43-.474.546.859-1.28-.519-2.121.967-.644-.555-.179.107-.868,1.763.788.77-.9.985.653,1.584h0l-.519,1.468-.322-.125-.5.582.3.233-.367.5.376,1.173-.662.233v.6l.474.6-.125.644-1.477.564-1.083.9-1.146.573-.188.385-.457.009-.412.832-.958.1h0l-.752.233-.2-.349-1.387-.269-.77.5-1.119.233v-.457l-.564-.725Z" transform="translate(-235.877 -188.966)"  />
          <path id="JP-22" d="M301.224,272.234l-.958,1.835-1.1.913-.43,1.128.26.68-.4.152-.43-.224-.367.17-.179.465-1.128.662-.34-.125-.967-.913.206-.26-.125-.331-.653-.3.009-.725.662-.653-.43-.967.242-.179-.179-1.6.6-.546-.483-1.369.439-1.1,1.835.143.242-.635-1.593-1.423-2.077-.457-2.453.734-.806,1.405.358.448-.2.537-2.748,1.486-.716,1.2.161.9-.618,1.1-1.361,1.029-.483,1.226.009.644.671.635-.081.2-4-1.414-1.844-.063-1.647.4-2.381-.546-3.186-.063h0l-2.265-4.189.385-1.1,2.461-1.378,1.146-1.719.027-.949,1.307-1.79.421-.215-.072-.421.51-.519-.456-.448.277-.877h0l.958-.1.412-.832.457-.009.188-.385,3.473-5.491,1.083-.9,1.477-.564.125-.644-.474-.6v-.6l.662-.233-.376-1.173.367-.5-.3-.233.5-.582.322.125.519-1.468h0l.841,2.846-.34,1.056.206.958-.412.832.3,1.164.609.457.474,6.565.421-1.59.618,2.408.618.448,1.11.107.644-.564-.358-2.381.385-.546-.045-1.531.886-.815.51,1.128.922-.107.4.868,2.506-.421.331-.242.627.063.6-.349h0l1.611,1.885.134.215.313,1.361-.251.868-.51.555.215,1.361.627.483.116.609,1.361.188h0l-.6.868-.125.9.564.224-.116,1.19.922.743-.1,1.369Z" transform="translate(-236.635 -191.684)"  />
          <path id="JP-16" d="M264.843,228.184l1.173.609.877-.206,1.736.081,1.047-.994.322-.9-.027-1.083.331-.636,1.2-.636,2.488-.537h0l.627.725.734.224.027,1.074.349.537v.689l.528,1.5h0l-.179,3.741-1.056.627-.1.689.188-.036.107.439-.546.152-.349.474.018.671-.376.725-.806.77h0l-.841-.063-.752-.734-.636.3-1.011-.313-.251-.7-1.208.716-.188-.036-.036-.788-.528-.045-1.307.618-.224-.394-.492.018-1.862,1.808-.224,1.029-1.244,1.092-.3-.072.233-.653-.3-.689-.823-.456-.313.322-.224-.528-.689.5-.26.949-.519.072h0l-.134-.8.286-.376-.4-1.692.671-2.641-.412-.519-.17-1.011.689-1.1-.206-.412.143-.868.492-.582.537-3.124L261.9,224.5l.653-.233,1.11.09h0l-1.19,2.05,1.271,1.4.618.448Z" transform="translate(-235.44 -189.087)"  />
          <path id="JP-19" d="M303.246,254.9l-.018,2.336-.3.627-.439.465-.636.09-.412.582-1.6.743-.358,1.011h0l-.6.349-.627-.063-.331.242-.967,1.092-.4-.868-.922.107-2.05-1.8.653,1.486.045,1.531-.385.546-1.182,1.71-.644.564-1.11-.107-.618-.448-.618-2.408-.68-.322-.68.465-.609-.457-.3-1.164.412-.832-.206-.958.34-1.056-.841-2.846h0l-.653-1.584.9-.985-.788-.77-.385-3.021.179-.107.644.555,1.584-2.426,1.28.519-.009.6.43.474.43-.081.2-.367,1.575.027.483,1.02.868-.009.653-.841.358.009h0l2.166,1.463.26.573,1.038.179.618.474.976-.26h0l1.405,2.9Z" transform="translate(-238.307 -191.531)"  />
        </g>
      </g>
      <g id="Kansai" transform="translate(177.944 226.539)" fill="#e2e2e2">
        <g id="Kansai-2" data-name="Kansai" transform="translate(0 0)">
          <path id="JP-28" d="M212.79,275.262l-.976.806-1.083-.2h0l-.483-1.226-.967-.859-.161-.421.627-1.173-.609-.761.313-.286.134-.815-.179-.528.823-.483.054-.832.528-.224.215-.985.215-.233.6.063.072-.7-.564-.591.394-.716h0l.519.233,1.468-1.029-.233-1.038.134-.385-.653-.859.081-.967-.653-.3-.439-1.683.107-.913-.34-.689-.618-.465h0l1.907-.591,1.092-.662,1.074.277.376.421.734-.6,1.235.179,1.146-.26.4.3.877-.054h0l.018,1.808.77.716.188.546.644.161,1.19-.591.286.483v2.354l-.815.465-1.02-.492-.331.9.018,1.137,1.334.546,1.182,1.011.68-.412.913.018.018.7.77.734-.224.492.492.215.385-.322.725.036.2.054.036.653.761-.161.868.439.26,1.128-.34.188-.152.483h0l-.385-.045-.26.277.358.215.072.868-.215.322,1.253.725.859.125-.815.457.385.224.881,1.847.662,1.11.16,2.817-1.811-.474h0l-.394-.3.125-.421-.224-.465-.823.286-.376-.537-.868-.116-1.772.841-.09.609-2.309.573-3.822-1.54-1.495-1.477-5.12.045Zm8.414,9.918.2.689-1.844.752-.877.734-1.2.17-.009-.4-.528-.277L217,286.4l-.385-.143-.483-.9.6-.859.34.215.421-.215,1.19-2.524.358-.412.367.009.85-1.343.85-.385.689-1,.492-.26.394.743-.537.644-.134.689-1.593,2.086-.009,1.378.8,1.065Z" transform="translate(-209.12 -253.62)"  />
          <path id="JP-26" d="M227.842,269.6l.152-.474.331-.188-.26-1.128-.868-.439-.77.161-.036-.662-.2-.054-.725-.036-.376.322-.5-.215.224-.492-.77-.743-.018-.689-2.1.107-.689.421-1.182-1.02-1.334-.546L218.7,262.8l.331-.9,1.02.492.815-.465.009-2.354-.3-.483-1.19.591-.644-.161-.188-.546-.77-.716,3.079-2.479h0l.233.269.868-.018.528-.269.4-.7.725.054,1.719-1.208,1.692-.537.967.609.591,1.074-.958.9-.17.662-.976,1.182.054.537.269-.009.528-.868.546.3.116.152-.573.492,1.208.546.224-.3.125,1.235.43-.43.752.188.045-.457-1.128-.707.761-.609.832-.1.134-.519.313-.009.009.51.367.224h0l-.367.8.465.376-.26.9,1.173,1.083.116.779,1.548.17,1.343.528,1.226-.233h0l1.056,1.647.376-.009-.34,1.289.385,1.889-.277,1.557-.3.224.26,1.047.8,1.352-.215.958.636.421.653-.34.116.788.277-.045.269.331.358-.134.546.537-.233.233.134.367h0l.4,1.074h0v1.32l-.3.68h-1.173l-.886-.009.072-.322-.662,1.011-1.047.2-1.719-.465-.465-1.092h0l-1.915-.627-.913-1.029-.277-.949-1.11-1.029v-.555l-.671-.018-.233.609.34.376-.707.233-.618-.653-.224.1-.063-1.038L228,270.256Z" transform="translate(-210.03 -253.37)"  />
          <path id="JP-24" d="M255.15,286.45l-.17.116.591-1.074-.51-.3-.591,1.262-.985.662-.331.045-.242-.707-.251.081-.206.752-.081-.618-.627-.009.251.841-.2.215-2.641.644-.367-.1-.573.492-.492.9.313.546.376-.054-.313.618-.546.09-.331-.483-.367.1.161.286-.627.215.161.286.609-.09.009.609.644.331-.152,1.074-.591.081-.7,1.011-.841.161-.367.591-.546-.027-.949,1.683-.644,1.79h-4.189l-1.522-1.736.063-1.719h0l.985-1.54,1.6-1.531.743-1,1.45.224-.125-1.19.215-.242.107-1.566-.331-.609.653-1.217-.618-1.029.6-.322-.782-.956.448-.85,1.951-.286.349-.841-.26-.859-.582.233-.412-.9-.734.242-.931-.457-.233-.367.394-.9-.045-.537.34-.465-.716-1.405h0l1.862-.843h0l1.2-.492-.063-.457.689-.564-.072-.224-.555-.045-.063-.224.421-.349.286.34.913-.018,1.2.591,2.086-1.011.188-.823.707-.985.036-1.235.653-2.238-.636-.653-.072-.761h0l1.978-.85,1.522,2.229.967.107h0l.286,1.083.868,1.405h0l-.68.179-.823.618-.322.913.233,1-1.728,2.641-.5,1.459.054.591.6.26-.34,1.19,1.88.546.251.609,1.146.421.967.725,1.056.027.2.582.5.116-.188.251.143.251.636-.116.251.26.072.653-1.011.6.1.3.564.125-.564.635.26.421-.412,1.137-.868.242-1.226-.421.967-.143.483.242.063-.582-.43-.107-.242.179-1.307-.3-.474.322Z" transform="translate(-212.078 -254.675)"  />
          <path id="JP-29" d="M243.4,278.078l.716,1.405-.34.465.045.528-.385.9.233.367.922.448.734-.242.421.9.582-.242.26.859-.349.85-1.951.286-.448.85,1.029,1.656-.591.322.618,1.038-.644,1.217.331.609-.116,1.566-.215.242.125,1.19-1.45-.224-.734.994-1.083.349-.985,1.54h0l-2.534,1.48-.591-.367-.591-.009-1.029.609-.2-.51.4-1.293.636-1.638-.251-.457-.519-.188.054-.465-1.02-.859.107-.483,1.343-1.3.34-.519-.009-.635.483-.242.725.331.349-.537-.188-.582-.8-.448-.179-1.54-.358-.609h0l.546-.331.17-.985-.072-1.047-.474-1.119.51-.806-.188-.4-.34-.063.456-2.121.456-.394.143-1.217.313.054h0l.465,1.092,1.719.465.653-.072.662-1.011-.072.322.886.009.439.6.519.072Z" transform="translate(-211.781 -255.872)"  />
          <path id="JP-27" d="M231.455,281.975l.331-.716-.573-.125-.027-.725.269-.456.662-.385-.412-.206h0l.483-1.083-.134-1.28-.662-1.11.421-1.826-.385-.224.815-.457-.859-.125-1.253-.725.215-.322-.072-.868-.358-.215.26-.277.385.045h0l.17.662,1.933.537.063,1.038.224-.1.618.653.707-.233-.34-.376.233-.609.671.018v.546l1.11,1.029.269.949.922,1.038-.26.555h0l-.313-.054,2.449,1.71-.456.394-.456,2.121.34.072.188.4-.51.806.474,1.128.072,1.038-.17.985-.546.331h0l-3.738-.331-1.074.716-1.45-.125-1.844.662-1.459.081-1.1.707-.931.161-.385-.036-.116-.788-.242-.081h0l2.3-.761,1.647-1.5.868-1.334,1.029-.931Z" transform="translate(-210.85 -255.204)"  />
          <path id="JP-25" d="M250.279,265.534l1.622.321,1.2,3.068-.653,2.238-.036,1.235-.7.985-.188.823-2.094,1.011-1.19-.591-.913.009-.3-.34-.421.349.063.233.555.036.072.233-.689.555.063.465-1.2.492h0l-.134-.367.233-.233-4.519-1.182-.358.134-.269-.331-.277.045-.116-.788-.653.34-.636-.421.215-.958-.8-1.352-.26-1.047.3-.224.277-1.557-.385-1.889.34-1.289-.376.009.8-2.978h0l.4-.662.331-.09.054-.448h.582l.313.358.51-.251.931-2.47.689.689.412-.09.412-.788,1.155-.107.313-.958.985.286.125-.671-.743-1.575.277-.6.6-.116,1.62.832h0l.233.958.591.063-.107,1.432.7.26.277-.448.492.636-.215.8.564.573-.081.9.474.761-.492.394-.036,1.2-.286.465-.018.832-.286.188Z" transform="translate(-212.139 -253.549)"  />
          <path id="JP-30" d="M238.462,304.956l-.483.34-.286.618.081.635-.43.072-.224-.313.286-.671-.707.1-1.683-.671-2.1-.34-1.808-1.083-.367-.662.134-.707-1.137-.564.877-.474.224-.51-1.289-1.092-2.345-1.083-.609-1.262-.689-.34-.994.286.188-2.086,1.405-.573.439-.564-.653-.68-1-.224.546-.573.269-.743.779.063.269-.313-.116-.671-.671-.179-.385-1.092-.9-.967.116-.43.322-.125h0l.456-.1.125.473.579.186.417-.511,1.1-.707,1.459-.081,1.844-.662,1.45.125,1.074-.716h2.261l.358.609.179,1.54.8.448.188.591-.388.841v-.517l-.6,1.1-.376.42-.34.51-1.334,1.3-.116.483,1.02.859-.054.474.519.188.251.457-.636,1.638.34.116.188.51-.179-.837.591.009.591.367,1.8-.3h0l-.063,1.719,1.522,1.736,1.155.242h0l-.3.4-.134,1.029-.859.233-.206.761.644.251-.063.313-1.862,1.307-.465.081Z" transform="translate(-210.777 -256.801)"  />
        </g>
      </g>
      <g id="Shikoku" transform="translate(138.381 255.933)" fill="#e2e2e2">
        <g id="Shikoku-2" data-name="Shikoku" transform="translate(0)">
          <path id="JP-38" d="M173.11,310.633l.206-.385.313-.233.313.036.018-.179-.26-.116-.34-.143-.421.143-.251.206-.394-.224-.179.34-.358-.116-.125-.206h-.412l.116-.4.152-.116.125-.09.277-.107-.027-.152-.036-.224-.269.027-.2-.331.313-.26-.063-.322-.242-.063.313-.286.143-.036.2-.242.081-.412-.206.116-.358-.045.152-.367-.456.09-.3-.322-.206.054-.313.26-.77.537-.465.125-.3.331-.985.3-.51.474-.143.277-.277.251-.456.054-.027-.215.313-.2.009-.152-.457.018-.761.636-.456.277-.224.009,1.924-1.62.456-.269.591-.322.51.072.277-.3.277-.125.412-.036.215-.125.09-.161,1.038-.465.77-.573.671-.358.188-.448.743-.886.564-.412,1.387-.5,1.092-.815.188-.215.331-.877.4-.358-.206-.644-.009-.886.179-.931.215-.591.385.152.385-.26.3-1.092.063-.555,1.584-1.495.994-.152-.054-.4.233-.152-.134-.5.322-.537.671.779.877,1.262.644,1.325.34.537.116.385.448.322.85-.286,1.235-.3.331-.09-.107-.412,1.074-.179.215-.233.34.045.331.3.627-.269.609.09.43.09.653.3.448-.063.618-.448.179-.3.125-.394.143-.072.358-.242h0l.3.242.85.116.546.3h0l1.486.725.242.439v.931l-.2.546-.045,1.513h0l-.367.009-.582-.009-.421.3-.456-.3-.188.036-.5.689-.188.242-.179.143-1.853.063-.716-.116-1.316.018-.179.152-.2.653-.161.1-.465.17-.3-.3-.179.018-.233.618-.349.707-.358.358-.313.448-.054.492-.2.251-.546.09-.31.331-.224.653-.17.412.26.26.036.465-.322.242.936,1.647-.009.242-1.074.3-.188-.116-.591.072-1.164-.188-.367.1-.286.268.313.286.134.841.134.179h.179l.206.644.4.125.242.322.036.51-.072.2-.716.412-1.083.376-.277.465.3.519-.385.027-.152.134-.125.421-2.492-.313-.17.063-.85-.823-.1-.242-.179.063-.125.26.26.555-.027.233.421.457.188.045.081.269-.179.823.269.277.412,1.038-1.02.958h-.869l-.667.107h0l-.286-.107-.841.313-.125-.242-.224-.3-.081-.161-.412.143-.17.081-.233.054-.018.26.018.116-.17.233-.313-.027-.242.009-.224-.036.072-.331-.286-.34.09-.107.322-.036.313-.233-.564-.3.251-.206.215.125.134.036.125-.09-.188-.349.09-.233-.269-.125-.107-.036-.009-.743-.251-.036-.313.3-.376-.215-.34.152-.116.072-.081.188-.045.26-.322-.161.3-.358.018-.34.134-.313.2-.045.179.1.125.3.3-.054.51-.2.116-.242-.269-.107.188-.349.34-.537-.018-.3-.349-.081-.134.009-.2.072-.134.116-.2-.125.045-.224-.322-.152.134-.3.26-.313-.465-.5.456.179.618.3.26.3.313.018-.072-.331-.179-.367.277-.242.5.036.206-.027.081-.143-.125-.3-.251.036-.34-.3.349-.188.036-.277-.716.045-.439-.17Z" transform="translate(-164.92 -286.859)"  />
          <path id="JP-39" d="M185.494,315.639l-.215.922-.9-.313-.537.394-.394,1.423.3,1.486-1.02.43-.018.985.922.564.3,1.325-.277.045-1.5-1.343-.689-.1h-.313l-1.083.931-.528-.322-.251.179-.815-.949-1.423.788-.081-.752.609-.9-.045-.322,1.038-1.128-.215-.34-.743.063.045-.34.367-.09.009-1.19-.456-1.119.179-.823-.68-.77-.242-.788.3-.331.94,1.056.17-.063.761-1.235.537-.152.439-1.486,1.083-.376.8-.6-.036-.51-.635-.457-.967-1.951.653-.367,1.942.233,1.074-.3.841-1.271-.286-.716L185,303.4l.743-.34.054-.492.671-.806.582-1.325.483.3.465-.17.528-.9,3.885.036.868-1.074.636.269.421-.3h.949l.331.483,1.873-.521,1.62-.152.582.806.707.286.546-.179.376-.725.349-.116.224.412.627-.152.051.126.405,1,.09,1.79,1.763.045.206.716-.421.483.09.421.7,1.065,1.216,1.183h0l-1.683,3.2-.582,3.2-.662-1.083h-.546l-.107-.653-.877-.9-.385-.922-1.262-.609-.457-.967-2.891-.537-.4-.492-2.82.448-.224.421-2.086,1.047.018.573-1.96.367-.492.958-.224-.519-.823.269.072.555-.242.251.188.394-.3.716.3-.081.063.474-.3.17.17.5-.806.841.224.653-.215.134-.063-.358-.394.027-1.361,1.987Z" transform="translate(-166.17 -287.489)"  />
          <path id="JP-37" d="M199.26,288.545l1.915-1.092.161-.859,1.862.627,1.441.063.958-1.074.474.34-.17.859.161.331.322.054.116-.358.4-.081.994.206-.009.367-.349.277.17.43,1.011.233.734.564.349-.054,1.226.94h0l.152,1.915-.376.2-.976-.519-.251.269-1.459-.233-1.522.161-.662.519.054.376-.286.3-1.11.125-1.047.815h-.421l-.77-.868-1.235.224-.68.26-.251.448-.627-.61-.42,1.063-.867.126-.48-.4h0l-1.683-.662.618-.448.3-2.757-1.352-1.083.063-.3.277-.081,1.423.716.492-.152,1.325-1.182Z" transform="translate(-168.147 -286.209)"  />
          <path id="JP-36" d="M216.191,298.866l-1.871.779-.8.689-.161.457-1.119.815-1.065.627-.823.17-.573,1.6-.8-.036-.188.421.233.125-.269.161h0l-1.889-.2-.7-1.065-.09-.421.421-.483-.206-.716-1.763-.045-.09-1.79-.456-1.128-.627.152-.224-.412-.349.116-.376.725-.546.179-.707-.286-.582-.806-1.62.152-1.2-.465-.331-.483h0l.5-.806v-.931l-.242-.439.26-.609h0l.555-.2.125-.457.9-.752.519.17.251-.448.68-.26,1.235-.224.77.868h.421l1.047-.815,1.11-.125.286-.3L205.79,292l.662-.519,1.522-.161,1.459.233.251-.269.976.519.376-.2.143-.859h0l2.515-.707v.841l.671.439-.644,2.649.081.985.43.474.322-.5.528.958.564.322-.465.349.627.17-.125.412-1.155.841-.081.3.242.188,1.772.036.125.188-.394.179Z" transform="translate(-168.331 -286.611)"  />
        </g>
      </g>
      <g id="Chugoku" transform="translate(116.845 187.584)" fill="#e2e2e2">
        <g id="Chugoku-2" data-name="Chugoku" transform="translate(0 0)">
          <path id="JP-34" d="M175.666,288.455l-.7-.627-1.3,1.566.277.806.68-.179.286.277-.134.188-.627.474-.251-.251-1.378.233-.161-.528,1.02-.564-.224-.412.125-.564.474-.394.072-.868-.636-1.549.134-.868-1.173-.582-2.041.931-.018.331-1.548,1.441-.188.456.242.134h0l-.3.17-3.588.537-.448-1.307.072-.564-.823-.7-.215-1.217.152-.725-.269-.609h0l-.439-.564.269-.573,1.906-2.969.564-.609.188-1.593.627-.922-.492-.3.269-.43,1.3-.77.277-1.02.707.1.358.43.188-.394,1.11-.116.465.376.456-.385-.063-.224.367-.125.224.367,1.459.116,1.316-.949,1.575-.125-.009-.779-.618-.188-.34-.421.761-.9,1.065-.224,2.148-2.981.358-.063,1.029.627,3.679.607.877.707,1.271-.376.519.2h0v.233l1.88-.286.376.448h0l.9,1.092-.412,1.083-.009,1.432,1.432,1.79-.26,1,.367,1.7-.009,1.235,1.083,1.477.107,1.557h0l-2.3,1.944-.788.081-.036.806-.3.277-2.148-.456-.036-.188.51-.17-.036-.537-.5-.188.063.385-.591.269-1.477.6-.662-.081-.206.877-1.128.349-1.146-.188-1.029.233-.313.51-.492.233-.224-.5-.636.072-.233.77-.4-.134-.036.877-1.038.072-1.173.761Z" transform="translate(-143.157 -215.872)"  />
          <path id="JP-33" d="M203.088,280.019l-1.262.976-.421,1.54-1.754-.483-.465.3-1.647-.3-.555-.7-1.432.26-.242.277.215.2-1.987.68-.618-.752h0l-.107-1.557-1.083-1.477.009-1.235-.367-1.7.26-1-1.432-1.79.009-1.432.412-1.083-.9-1.092h0l-.127-.653V267.6l.34.2,1.62-.564-.3-1.065.242-.34.7.3,1.083-.439.188-.448-.188-.43.859-.224.7-2.175,1.88-1.074,1.8,1.074.958.662.465.815.591-.448.179-.483,1.038-.439.027-.43,1.343-.385-.134.8.17.152.707.188.841-.152.618.528.2.376-.107.546.439.277-.17.636.456.564,1.325-.823.483.242.618-.116.886.6.269.206h0l-.394.716.564.591-.072.7-.6-.063L209,267.9l-.215.985-.528.224-.054.832-.823.483.179.528-.134.815-.313.286.609.761-.627,1.173.161.421.967.859.483,1.226h0l-.448.3-.179-.251-.591-.009-1.575,1.772-.331.8-.877.528-1.146.054Zm4.708,2.542-.331.054.609-.636-.77.179-.6,1.155-.206-.528.331-.439-.1-.215-.448-.26-1.047.448-.188-.224.4-.77,3.294-1.208-.107.421.269.3-.358,2.014-.358-.465-.394.17Z" transform="translate(-145.972 -215.251)"  />
          <path id="JP-32" d="M167.623,264.19l.251-.707,1.1-.832.072-.6.448-.6,2.247-1.611,1.271-.483.5-.457.367-.7.116-1.441-.859-.349.09-.331,1-.412.448.269.761-.152.1-.188-.555-.313,1.289-.269.215-.286,1.907-.456.9.036-.063-.582,1.047.107.367-.859.832-.573.815.949.967-.152.367-.3,1.933.286-1.083.269-.367.457.439.886,1.02.609h0l1.856,2.09-.376.555.242,1.459-2.775,1.235.018.26.546.116.206.618-.8.627-.152,1.378h0l-2.519-.1-1.271.376-.877-.707-.707.555-1.029-.627-.358.063-2.148,2.981-1.065.224-.761.9.34.421.618.188.009.779-1.575.125-1.316.949-1.459-.116-.224-.367-.367.125.063.224-.456.385-.465-.376-1.11.116-.188.394-.358-.43-.707-.1-.277,1.02-1.3.77-.269.43.492.3-.627.922-.188,1.593-.564.609-.537.161-.269.573.439.564h0l-.725.4-.43.636-.134.277.385.8-1,1.414-.618-.564-.841.627-.94.09-.779-.77-.152-.689.492-1.378-1.674.036-.546-1.477.591-.573.018-.734.385-.143-.743-2.274h0l1.029.027,1.352-.4,1.19-1.361,1.011-.734.206-.591.564-.179,1.038-1.11.671-1.11,2.56-2.13,1.414-.564Zm16.2-24.463-.349-.448-.43-.063.152-.725-.269-.152.072-.779.779-.886.967-.277.707.3L186.608,238l-.269,1.343-.4.17-.09-.5-.125.4-.519.081.537.125.1.5-.233.063-1.6.045.125-.385-.3-.116Zm-41.192-29.708.286-.17.188.2-.2.286.09.868-.68.788-1.155-.483-.3-.859.546-.367,1.226-.26Zm38.543,30.711.242.081-.081.3-.832.412.3.448-.2.564-.394-.054-.331-.636-.313-.027-.17.206.385,1-.922-.573.564-1.11.636-.045-.018-.412.609.152.528-.3Zm1.02,1.235-1.182,1.128.2-.743-.277-.716.233-.161.233.269.063-.448.331-.072.349.2.054.546Zm-2.318,1.155,1.208.474-.125.313-1.056-.143Z" transform="translate(-140.86 -209.849)"  />
          <path id="JP-31" d="M190.431,260.364l1.307.26.421-.143.421-.77.877-.448,1.611-.34,1.289.519,1.611.152,3.016-.206.6-.331,1.253.152,1.656-.179,2.488-.662.5-.689.68-.045.116-.349.546-.116h0l.618.465.34.689-.107.913.439,1.683.653.3-.081.967.653.859-.134.385.233,1.038-1.468,1.029-.519-.233h0l-.269-.206-1.244,1.038-.618.116-.483-.242-1.325.823-.456-.564.17-.635-.439-.277.107-.546-.2-.376-.618-.528-.841.152-.707-.188-.17-.152.134-.8-1.343.385-.027.43-1.038.439-.179.483-.591.448-.465-.815-.958-.662-1.137-.009-1.522-.564-.7,2.175-.859.224.188.43-.188.448-1.083.439-.7-.3-.242.34.3,1.065-1.62.564-.34-.2-.215.752-.322.224h0l-.376-.448-1.88.286V268.8h0l.152-1.378.8-.627-.206-.618-.546-.116-.018-.26,2.775-1.235-.242-1.459.376-.555.143-2.184Z" transform="translate(-145.722 -214.813)"  />
          <path id="JP-35" d="M153.659,293.532l-.528-.367-.313.788-.662.313-.26-.179.134-.528-.394-.125-.689,1.307-1.54.922-1.951-.7.072-.707-2.023-1.146-.618.34-.286.788-1.647,1.593-.17-.528.412-.779-.027-1.5-.949-1.361.107-.546L143,291l.492-.994-.215-1.083-.958-1.047.269-.143.34-1.226,2.363-.367-.269-.43-1.092-.34.251-.734.823.662.967-.3.465.134.976.994,2.649-.233.555-.743.913.027,1.289-1.5-.242-.591.313-.5.627.125.627-.636.3-.376.027-.77.412-.1.34-.788.224-.206.868.26.421-.439h0l1.924,1.486-.385.143-.018.734-.591.573.546,1.477,1.674-.036L159.4,285.4l.152.689.779.77.94-.09.841-.627.618.564-.179-.627-.385-.8.134-.277.43-.635.725-.4h0l.269.609-.152.725.215,1.217.823.7-.072.564.448,1.307,1.146.277.3-.17h0l.215.439-.26.465.331.421-.877.815.215,2.649-.51.859-.976.107.009,1.45.519.609-.3.564-.439-.958-1.28-.653-.331.152-3.231-2.47-.421.537-.027.492-.815-.179,1-1.056-1.119-.636-.465-.072-1.629.492-1.88.859-.5-.555Zm13.552,3.24-.806-.125-.465.412-.519-.779-.054-.707,1.056-.85,1.217,1.011.877.054,1.128-.761.985.054-1.128.859-.636-.009-.17.277.17.743-.779.09-.09-.734-.394-.09-.483.081.09.474Z" transform="translate(-141.003 -217.172)"  />
        </g>
      </g>
      <g id="Kyushu" transform="translate(77.228 250.294)" fill="#C850C0">
        <g id="Kyushu-2" data-name="Kyushu" transform="translate(0 0)">
          <path id="JP-40" d="M132.39,302.38l1.11-1.208.125-.537-.107-.322-.3.009-.054-.609.5-.045.224-.725.761-.465-.072-.349.7-.027.224.269.931-.1.609-.358.636-.841.985.4.4-.3,1.6.349.385.519.662-.251L142,297.1l1.038-.68.358.277-.644,1.208.152.859-.707.627.2.412.591-.116.492,2.265,1.253,1.88.5-.251.967.68h0l-.134.331.269.716-.349.465.116.412-1.71.1-.868-.242-.832.206-1.441,1.235-.269,1.477-.439.116-.421.618.269.143.26.85-.125.573-.465.233-.107.34.322.17-.027.555.752.653-.43,1.235-.313.224h0l-1.369-.465-.6-.546-.725.036-.143-.358-.474,1.289-1.343-.152-1.45,1.334.161.958-1.915-.072h0l.43-.985-.286-.716-.662-.7.027-.367-.331-.17h0l.152-1.1.528-.931,1.656-1.271.456-.77.456.027.018-2.014-.367-.188-.662.224-.886.85-.555-.636-.689-.152-1.522-.958-.43.2-.77-.215-.618.286-2.354-.072h0l.134-.609,1.441-.286.483-.573.17-.492-.376.268-.134-.4-.242-.143-.4.215-.2-.358,1.065-.313.26-.34-.107-.34.761-.268.134-.546.528.358-.224.331.161.376.734.125.1.627.43-.072.143-.3.591.063.931-.439.107-.752.51-.206-.072-.537-.528-.036Z" transform="translate(-100.578 -280.746)"  />
          <path id="JP-43" d="M138.049,337.217l-1.119-.582-.233-.439-.51-.116-.358-.636-.483.68-.815.367-.752-.009-.537.492-.931-.143-.286-.555-.483-.233h0l.161-.967.931-1.011,1.119-2.354,1.486-1.495-.107-.859-.34-.027-.063-.4.6.027.116-.2-.806-.492,2.184-2.166-.206-.179-.994.412-2.345.09.009-.34,2.435-1.638-.018-1.361.206-.313-.761-1.038-.689-.161-.116-.671-1.307-.609-.286-1.566-.51-.43h0l1.11-.84-.161-.958,1.45-1.334.806-1.772.474-1.289.143.358.725-.036.6.546,1.369.465h0l-.009.26.779.152.537.707.564.045.358.564.34.009.439-.564.161-.761-.743-1.083.116-.662.913-.5,1.262.233,4.547,3.4.17,1.047.77.7.528,1.45.188,2.032-1.019,1.549h0l-1.128.143-.5.9-.027.806-.868.573-.179.832h-.528l-.322.483-.224,1.262-.412.3-.636-.188-.26.644-.358.152-.224,1.235.224,1.011.376.609.394.081.17,1.029.68.609-.564.922-.5.027-.179.528,1.029,1.2.152.815-.788.1-.994-.322-.627,1.065-.358.116-.761-.313-.9.636-2.3-.045Zm-5.388-8.754.421-.063-.206,1.146-.483.68.251.081-.5.761-.743.34-1.065-.465-.806.072-.054-.34-.456-.152-.349.358.448.358.045.394-.385.886-1.665,1.208-.206.77-.949.635.045.859-.421.152-.591-.985.224-.779-.653-.188.582-1.271-.394-.519-.018-.644L125.8,329.6l.161-1.011,1.244-.582,1.262-.134.215.251-.134.823.233.922,1.45-.725.537-.644.779-.242.51.331.609-.125Zm-4.628,6.373-.072-.635.519-.528-.2.859.591,1.522-.412.251-.421,1.11-.913-.734.072-.671-.3-.322.125-.779,1.011-.072Zm5.075-7.116-.474.242-.322-.143-.2-.779.859-.8.3.788-.286.376Z" transform="translate(-100.428 -282.339)"  />
          <path id="JP-46" d="M129.177,353.778l1.011-1.692.242-2.095-.179-.958-2.766-2.855,1.011-2.417-.161-.976-.653-1.253.51-.967-.644-.519.188-.483.752-.385.465.009.609.412.967-.09.394-.859h0l.739-1.092.286.555.931.143.537-.492,2.166-.349.815-.367.483-.68.358.635.51.116.233.439,1.119.582h0l-.43.9.582.206.734.707.376,1.271.967.313.662.761-.107,1.128-.179.063.152.788.582.09.269.322.967.116.269,1.378.707.17.143,1.405.492.868.448-.519.636.573.859-.1.421.26.269.823-.224.555.17.752-.555.591-2.21,1.495h0l-1.047-.376-.886.7-.627.976-.072.716,1.584.546.018.385-.582.635.161.161.707-.251.107.224-1.137,1.011-.9.027-.188.752-.707,1.047-1.575.877-1.289.224-2.453,1.835.322-1.217-.456-.358,1.611-1.244.394-1-.224-.644.627-.8.242-1.728-.841-1.844-.412-.537-.6-.251.1-1.736-1.208.027-.779-.734.609-.815.94-.179.662.555-.1.743.949.081,1.011-1.844-.439-.985-2.39-.7-.752.6-.2,1.065-.832,1.2.134.483L133.955,352l-.215-.027-.143.877.233,1.182.716,1.844.958.877.8.206-.465,1.575-.922.662-.555-.439-.68.26-.215-.26.054-.734-.859-.761-1.9.018-.77-.331-1.665.367-.161-1.325-.573-.206.644-.492-1.378-1.325.483-.591.233.43.922.457.68-.483Zm4.153,19.656L134.6,374l-.054.3,1.226.331.6.564-.34,1.575-1.173,1.182-1.11.269-1.513-.251-.233-.707-.2.161.009-.618-.4-.519-.242-1.02.036-.421.841-.072.662-.815.009-.421.492.081.1-.331Zm7.93-2.39L141.1,369.2l.734-1.164.269.009.134-1.2.949-1.137.456,1.02-.215.5.143,1.414-.456.644.072,1.029-.43.564.036.421-.618.376-.662,1.361.125.251-.2.224.385.465-.206.421.242.313-.3.107-.009.412-.725-.009-.9.609-.269-.519.152-.788-.3-1.208.43.009,1.316-2.282Zm-21.6-21.8-.689.421-.367-.26-.116-.5.331-.188.349-1,1.182-.439.385-1.11.322.152-.045.439-.564,1.029-.537.161.1.367-.34.367.233.286-.242.277Zm1.933-4.028-.286-.5.313-.421.483.072.34.439.761-.17.107.34-.027.537-.815.268-.456-.242.072-.3-.358-.3-.134.269Zm7,28.07.618.439-.009.233-.358-.063-.6.349-.34-.4.072-.43-.448.116-.474-.671,1.54.43Z" transform="translate(-99.792 -284.937)"  />
          <path id="JP-45" d="M153.257,339.279l-.9,3.025-.134,1.3.743,1.047-.5,1.4.054,1.808-.707.412-.806,1.871.215.716-.492.3.17.859-.7.653.3.635-.456.027-.465-.412-.788.072-.609-1.352-.94-.233h0l.107-.644.555-.591-.17-.752.224-.555-.269-.823-.421-.26-.859.1-.636-.573-.448.519-.492-.868-.143-1.405-.707-.17.161-.546-.967-.116-.269-.322-.582-.09-.152-.788.179-.063.107-1.128-.662-.761-.967-.313-.376-1.271-.734-.707-.582-.206.43-.9h0l.081-1.908.9-.635.761.313.358-.116.627-1.065.994.322.788-.1-.152-.815-1.029-1.2.179-.528.5-.027.564-.922-.68-.609-.17-1.029-.394-.081-.376-.609-.224-1.011.224-1.235.358-.152.26-.644.636.188.412-.3.224-1.262.322-.483h.528l.179-.832.868-.573.027-.806.5-.9,1.128-.143h0l.43.519.34.009,4.162-.866.743.77-.161.421.17.26.806.269.465-.394,2,.018.439-.519.134-.662.716-.134,2.023,2.23-.923,1.912.5.009h0l-.206.465-1.4.868-.528,1.495-.967.474-.358.779.206.564.653.474-.591.483-.806.152.17.492.528.313-.823.322-1.047,2.488-1.387,5.048Z" transform="translate(-101.959 -283.291)"  />
          <path id="JP-42" d="M126.923,317.693l.85-.125.439.322.788,1.531v.985l-.546.716.206.277-.188.439-1.441.537-.591.761-1.137.421.027-.609-.716-.439.072-.779,1.262-1,.054-.546-.421-.224.17-.376-.233-.26-1.665-.027-.967.636-1.369-.081-.17.886-.841,1.334-.859.51-.752.985-1.173.43.215-.483.528-.215.9-2.73-1.155-1.369.17-.4-.5-.081-.161.367-.806-.779-.537-1.575-.564-.734-.063-.51.412-.653.206-1.414.868-.242.5.644-.134,1.047.349.081.224-.376.9.555.018,1.459-.34-.009.134.644-.286.591.528.054.528.68.868-1.011,1.459.922.51-.224-1.369-1.611.349-1.316-.34-.841-1.253-.841-1.4.107-.743-.349-.286-1.8-.4.081.2.725-.788.528-.17-.644.573-.072-.206-.618-.734-.054-.3-.609-.653-.439-.492.009.116-.8.519-.376-.233-1.271.358-1.02.528.412.806-.788.26.242-.313.474.17.242.671.134.591-.412.3.286.3-.4.188.752h0l-.081.726.94,1.235-.421,1.289,1.235.519.913-.09.322.779-.09.376-.465.09-.045.322,1.029.689,1.387,1.477,2.506.609h0l-.045.537-.609.3-.716.832.761.662,1.557-.627Zm-16.4-30.7.313-1.02-.5.635-1.182-.045-.448-.269.465-.125.251-.394.116-1.781.6-1.208.367-.161-.018-.376-.7-.1-.027-.331.331-.394.269-1.28,1.289-.063.349-.859.636-.313.582.26.277.546L113,281.021l.063,1.11-.68,1.083-1.164,1.1.51.868-.233,1,.439.054.1.26-.788.662.027.358.34.143-.6.564-.546-.116-.815,3.1-1.226.976-.179-.4-.644.009.68-4.869.43.269-.107.546.761-.251.018-.349,1.137-.143Zm-8.62,33.432.125,1.065.841.734-.072.3-1.3.09-.2-.4-.662.224-.134.519.456.242.1.349-.385.394-.34-.116-.313-.6-1.432.349-.994-.456.242-.734.179.268.859-.367-.394-.6-.152-1.7.3-.4.421.036.483.609,1.79-1.011-.009.421.591.8Zm4.637-6.436-.277,1.387.582-.036.779-.519.286.125.027.51-1.531,1.334.072,1.146-.618-.054-.116.976-.286-.143.277-1.378-.412-1.173-.242.269-.537-.242.367-.689.627.018-.107-1.083,1.065-1.11-.143-.859.34-.886.143,1.2-.3,1.208Zm7.4-6.937.277.09.054-.3-.492.009.134-.34.564-.072.143.591-.17.233.286.277-.421.188-.027.376-.4.09.2.322-1.208,2.041-1.656.931-.367-.251.063-.483.34.394.394-.027-.251-.788.823-.465-.4-.528.689-1.128,1.155-1.164.277.009ZM102.21,318.275l.743.465-.385,1.217-.671-.439-.072-1.146Zm2.632-.34-.474-.233-.358-.591.636.09-.331-.483.179-.3.806.734-.1,1.1-.358-.322Zm2.363-9.121-.018.376.286.125-.5.251.036.215-1.02-.215-.054-.242.394-.34.519-.027.045-.286.313.143Zm-3.562,10.374-.143-.367-.313-.072-.018-.376-.734-.474.3-.322.51.143.233.662.331-.725.161.063.116.385-.394.483.179.26-.224.34Zm8.235-11.994.492-1.486v1.871l-.644-.09Zm2.981-2.291-.4.26-.985-.054,1.047-.832.483.313-.143.313Zm-9.076,6.176-.206.116-.349-.277.286-.483.385.242.528-.161-.161.609-.483-.045Z" transform="translate(-97.6 -278.909)"  />
          <path id="JP-44" d="M141.6,315.377l.313-.224.43-1.235-3.105-1.853.027-.555-.322-.17.107-.34.465-.233.125-.573-.26-.85-.269-.143.421-.618.439-.116.269-1.477,2.775-.806.832-.206.868.242,1.71-.1-.116-.412.349-.465.752.052.134-.331h0l.286-.385,1.593.815,2.3.107.081-.4.9-.806.439-.859,1.5-.448,1.432.725,1.119,1.495.242.967-.081,1.6-.286.134-.358,1.083-1.226-.358-.161.26.448.582-.107.2-.815.09-.188.528-.653-.1-.215-.376-.636.134-.107.636.313,1.343,1.343.457,1.683-.725,1.2.859,2.649-.6-1.218,1.82-.448,1.128.627.277.967-.439.286.251-.618.3-.358.609.886.26.269.027.26-.636.528.752.322-.152-.027-.456.26-.125.063.716-.448.322-.922-.1-.671,1.235.107.251.519.17.224.412.644-.233.4.331,1.468.063.063.233-1.889.242.152.689.546-.018-.725.68.591.627-1.28.913-.823-.421-.224,1.37h0l-.5-.009.233-1.4-1.468-.555-.716.134-.134.662-.439.519-2-.018-.465.394-.806-.269-.17-.26.161-.421-.743-.77-1.808.627-.34-.009-.43-.519h0L148.894,320l-.188-2.032-.528-1.45-.77-.7-.17-1.047-.931-.976-1.262-.233-.913.5-.116.662.743,1.083-.161.761-.439.564-.34-.009-.358-.564-.564-.045-.537-.707-.779-.152.018-.277Z" transform="translate(-101.937 -281.435)"  />
          <path id="JP-41" d="M121.055,310.219l.6.859.143-.823-.17-.17.6-1.244-1.566-1.2.43-.134-.233-.3.242-.286.349.125.313.716.251-.2-.5-1.056-.027-.286.483-.027-.179-.788.573.43.286-.036.018-.242.609-.027.027.3.662.564-.564.662.546.483,1.02.17.251-.143-.045-.3h0l2.465-.877,3.054-.457.77.215.421-.188,1.522.958.689.152.555.635.886-.85.662-.224.367.188-.014,2.015-.456-.027-.456.77-1.656,1.271-.573,3.607-2.654-.456h0L129.581,314l-.179-.465-.788-.519-.17.591-1.6,1.289,1.593,2.739.036.367-.376.027-.209.4L125.177,318l-1.387-1.477-1.029-.689.045-.322.465-.09-.4-.492-.322-.779-.913.09-1.235-.519.877-1.593-.94-1.235.528-.886h0l.2.215Zm-1.441-8.038-.546-.027-.349-.985-.331.448-.188-.662.3-.448-.17-.349.949-1.2,1.226.448-.233.761.465.4-.51.26.7.242-.152.483-.976.045-.188.582Zm.215,5.952.331-.9.7.85-.546-.054-.072.376-.43.206-.269-.269.286-.215Z" transform="translate(-99.761 -281.012)"  />
        </g>
      </g>
      <g id="Okinawa" transform="translate(0 353.587)" fill="#C850C0">
        <g id="Okinawa-2" data-name="Okinawa" transform="translate(0 0)">
          <path id="JP-47" d="M73.574,462.2l.743-.725,1.889-.8.34-.671-.662-.537-.9-.09-.3-.743.277-.313-.34-.474.054-.537.465.242.994-.152.689.269.17.179-.3.635.286.43.823-.1.841-.537.277-.806.734-.349-.018-.277,1.289-1.226.376-.9-.081-.528.224-.107.815.635.349,1.826-1.575,2.346-1.575.027.045.618-.465-.09.492.707-1.029.644-1.029-.34.3.6L76.241,462.1l-.3.6-1.423-.4-.671.51.188.519.627.474-.063.43.886.949-.045.313-.9-.8-.6.125-1.182,2.5.179.269.662-.09.251.5-1.468.94-.4.564-.85.3-.349-.188-.349-2.247,1.253-1.468.859-.439.045-.233-.788-1.88.027-.573.143-.134.215.34,1.387-.788Zm31.4-37.71-.985,1.28-.958.358-.448-.17-.251,1.011.34.671-.958.662-.161.537-.313-.269-.26.269.188.9-1.468-.832.027-.448-.4-.779-1.692-.269-.761-.591,1.611-.4.161-.17-.34-.412.868-.5.68-.036.644-.788.474.3.492-.636.931.107.269-.662.269.277.5-.009.206-.806.439-.465.456.134.931-.412.143.85-.2.233.331.17.644-.9-.51-.832.8-.555.1.815.43.3-.063.9-.9.653-.913-.081-.349.6ZM5.225,503.066l-.2.841-.448.143.027.653-.358-.036-.1.412-.761-.331-1.423-.134-.528-.376-.107.412-.671-.089-.34-.483.743-.815.465.17.242.4.161-1.074-.17-.349.591-.85.636.528,1.1.143,1.137.832Zm88.757-68.358-.045.779,1.235,1.092-.868,1.835-.922.17-1-1.226.456-.806-.483-1.405.376-1.182,1.289.036-.036.707Zm-84.7,66.6.949-.116-.045-.313.636-.922.394.251.3-.662-.233-.394.456-.5.054-.439.51.09-.125.707-.528.465.1.26-.456.448-.027.376-.555.483.143.976-.322,1.253-1.513.331-.215-.412-.555-.26.448-.412.1-.519-.77-.367-.269.322-.277-.3L7.6,501.2l.743.161-.009-.716.949.662Zm19.1-5.925.152-.233.107.34.3-.027-.5-.886.4-.3.125-.582-.5-1.226.161-.17,1.235,1.826.009.465,1.71.707.358.6-2.56.367-.832-.448-.17-.439ZM87.94,444.465l-.528.492-.716.206-.51-.465-.125-.725.188-.331,1.1.152,1.692-.859.34.036-1.441,1.495ZM98.395,428.7l.349.161.269-.465.546.976,1,.143.188.3-.251.519-.34.161-.492-.457-.161.582-.636-.743-.591.457.09-1.253-.564-.34-.242-.618.618-.26.17.2-.269.206.313.439Zm-43.251,36.18-.8-.448-.233-.448,1.3-.34.707.823-.34.439.125.635-.591-.269-.17-.394Zm57.6-40.351-1.074,1.674-.519.2-.439-.34.045-.653.546-.063,1.074-1.02.367.206ZM26.376,494.205l.009-.6.277.331.179-.653.806.349.215.627-1.074.242Zm49.6-43.412.806-.922.448-.081-.528.985-1.307,1.047.582-1.029Zm-2.363,6.078.215.483-1.164.036-.233-.206.188-.376.994.063Zm-8.083,9.962.26.215v.492l-.233.188.081.448-.4.367-.054-.877.349-.832Zm10.231-14.321.349.4-.063.421-.251.072-.5-.528ZM6.317,505.036l.5.224-.277.474-.421-.367.2-.331Zm58.4-38.659.376.188-.43.412-.439-.134Z" transform="translate(-0.32 -421.309)"  />
        </g>
      </g>
    </g>
  </g>
</svg>
