<?xml version="1.0" encoding="utf-8"?>
<!-- Svg Vector Icons : http://www.onlinewebfonts.com/icon -->
<!DOCTYPE svg PUBLIC "-//W3C//DTD SVG 1.1//EN" "http://www.w3.org/Graphics/SVG/1.1/DTD/svg11.dtd">
<svg version="1.1" xmlns="http://www.w3.org/2000/svg" xmlns:xlink="http://www.w3.org/1999/xlink" x="0px" y="0px" viewBox="0 0 1000 1000" enable-background="new 0 0 1000 1000" xml:space="preserve">
<metadata> Svg Vector Icons : http://www.onlinewebfonts.com/icon </metadata>
<g><g><g><g id="Layer_5_2_"><g><path d="M502.3,70.3C228,70.7-53.5,586.4,22.7,745.3c40.6,84.7,148.3,139,277.7,165.3c126.3,25.7,273.5,24.9,399.2-0.1c137.9-27.4,250.1-83.9,281.1-166.2C1043.1,578.7,780.2,70,502.3,70.3z M887.7,705.3C868.2,757,808.6,796,730.4,820.9c-5.5,1.8-11.1,3.4-16.8,5.1c-4.6,1.3-14,1.1-14-10.9V564.6c0-25.5-20.9-46.3-46.4-46.3H346.7c-25.5,0-46.4,20.9-46.4,46.3v250.2c0,11.4-9.5,12.1-14.2,10.7C206,801.7,142,762.3,115,706c-30.4-63.5,10.6-199.3,86.6-319.2c76.1-119.9,187.1-224,296.7-224.1c1.2,0,2.4,0.1,3.5,0.1c1.1,0,2.3-0.1,3.4-0.1c55.5-0.1,110.3,25.5,160.5,66c50.2,40.5,95.7,95.9,132.7,155.5C872.5,503.3,912.6,639.1,887.7,705.3z"/></g></g></g></g><g></g><g></g><g></g><g></g><g></g><g></g><g></g><g></g><g></g><g></g><g></g><g></g><g></g><g></g><g></g></g>
</svg>